<svg width="151" height="38" viewBox="0 0 151 38" fill="none" xmlns="http://www.w3.org/2000/svg">
<path d="M40.08 15V3.432H43.216L47.728 9.88V3.432H50.84V15H48.032L43.192 8.104V15H40.08ZM56.0659 15L52.1619 3.432H55.0979L57.7779 11.352L60.4499 3.432H63.3939L59.4899 15H56.0659ZM69.2179 15.16C68.0712 15.16 67.0765 14.9173 66.2339 14.432C65.3965 13.9413 64.7485 13.2533 64.2899 12.368C63.8312 11.4827 63.6019 10.44 63.6019 9.24C63.6019 8.03467 63.8339 6.98667 64.2979 6.096C64.7672 5.2 65.4232 4.50667 66.2659 4.016C67.1085 3.52 68.0925 3.272 69.2179 3.272C70.3379 3.272 71.3165 3.52 72.1539 4.016C72.9912 4.50667 73.6419 5.2 74.1059 6.096C74.5699 6.98667 74.8019 8.03467 74.8019 9.24C74.8019 10.4347 74.5725 11.4773 74.1139 12.368C73.6605 13.2533 73.0152 13.9413 72.1779 14.432C71.3405 14.9173 70.3539 15.16 69.2179 15.16ZM69.2179 12.664C69.6445 12.664 70.0232 12.5573 70.3539 12.344C70.6899 12.1253 70.9512 11.7707 71.1379 11.28C71.3299 10.784 71.4259 10.12 71.4259 9.288C71.4259 8.42933 71.3299 7.744 71.1379 7.232C70.9512 6.71467 70.6899 6.34133 70.3539 6.112C70.0232 5.88267 69.6445 5.768 69.2179 5.768C68.7912 5.768 68.4099 5.88267 68.0739 6.112C67.7432 6.34133 67.4819 6.71467 67.2899 7.232C67.0979 7.744 67.0019 8.42933 67.0019 9.288C67.0019 10.12 67.0979 10.784 67.2899 11.28C67.4819 11.7707 67.7432 12.1253 68.0739 12.344C68.4099 12.5573 68.7912 12.664 69.2179 12.664ZM76.5644 15V3.432H81.1404C81.9937 3.432 82.7617 3.584 83.4444 3.888C84.1324 4.192 84.6764 4.63733 85.0764 5.224C85.4764 5.80533 85.6764 6.51467 85.6764 7.352C85.6764 8.11467 85.5084 8.77067 85.1724 9.32C84.8364 9.864 84.359 10.2827 83.7404 10.576C83.1217 10.8693 82.3884 11.016 81.5404 11.016H79.6764V15H76.5644ZM79.6444 8.696H81.4444C81.839 8.696 82.167 8.53867 82.4284 8.224C82.6897 7.90933 82.8204 7.56533 82.8204 7.192C82.8204 6.792 82.6764 6.45067 82.3884 6.168C82.1057 5.88 81.791 5.736 81.4444 5.736H79.6444V8.696ZM87.2363 15V3.432H90.4683V8.104L93.8123 3.432H97.3083L94.1323 7.848L97.8283 15H94.4843L91.9083 10.12L90.4683 11.976V15H87.2363ZM103.349 15.176C102.554 15.176 101.813 15.0213 101.125 14.712C100.442 14.4027 99.8903 13.9733 99.469 13.424C99.0477 12.8693 98.8343 12.2267 98.829 11.496H101.757C101.821 11.8693 101.978 12.176 102.229 12.416C102.48 12.656 102.808 12.776 103.213 12.776C103.65 12.776 104.045 12.688 104.397 12.512C104.754 12.336 105.026 12.0427 105.213 11.632C105.4 11.2213 105.458 10.664 105.389 9.96C105.218 10.136 105.013 10.2853 104.773 10.408C104.538 10.5253 104.269 10.616 103.965 10.68C103.661 10.744 103.32 10.776 102.941 10.776C102.136 10.776 101.418 10.6267 100.789 10.328C100.16 10.0293 99.6637 9.61067 99.301 9.072C98.9437 8.53333 98.765 7.90133 98.765 7.176C98.765 6.42933 98.9623 5.76267 99.357 5.176C99.757 4.584 100.306 4.12 101.005 3.784C101.709 3.44267 102.52 3.272 103.437 3.272C104.504 3.272 105.416 3.50933 106.173 3.984C106.936 4.45333 107.517 5.112 107.917 5.96C108.322 6.808 108.525 7.79467 108.525 8.92C108.525 10.376 108.312 11.5653 107.885 12.488C107.458 13.4107 106.858 14.0907 106.085 14.528C105.312 14.96 104.4 15.176 103.349 15.176ZM103.549 8.376C103.789 8.376 104.026 8.32533 104.261 8.224C104.496 8.12267 104.69 8.00533 104.845 7.872C105.005 7.73867 105.085 7.624 105.085 7.528C105.085 7.07467 105.021 6.70133 104.893 6.408C104.765 6.11467 104.586 5.89867 104.357 5.76C104.128 5.616 103.864 5.544 103.565 5.544C103.293 5.544 103.045 5.608 102.821 5.736C102.602 5.85867 102.426 6.032 102.293 6.256C102.16 6.48 102.093 6.73867 102.093 7.032C102.093 7.48 102.242 7.816 102.541 8.04C102.845 8.264 103.181 8.376 103.549 8.376Z" fill="#F4F4F4"/>
<path d="M40.296 34V22.432H43.688L46.336 30.68L49.008 22.432H52.392V34H50.032V25.152L47.248 34H45.416L42.648 25.192V34H40.296ZM58.2688 34.16C57.4474 34.16 56.7248 33.9893 56.1008 33.648C55.4821 33.3013 54.9994 32.8133 54.6528 32.184C54.3061 31.5547 54.1328 30.8133 54.1328 29.96C54.1328 29.1333 54.2901 28.3893 54.6048 27.728C54.9248 27.0613 55.3834 26.536 55.9808 26.152C56.5781 25.7627 57.3008 25.568 58.1488 25.568C58.9914 25.568 59.6981 25.7467 60.2688 26.104C60.8394 26.456 61.2714 26.9493 61.5648 27.584C61.8581 28.2133 62.0048 28.9413 62.0048 29.768V30.4H56.4448C56.4448 30.8213 56.5141 31.1893 56.6528 31.504C56.7914 31.8133 56.9914 32.0533 57.2528 32.224C57.5194 32.3893 57.8394 32.472 58.2128 32.472C58.6128 32.472 58.9621 32.3867 59.2608 32.216C59.5594 32.0453 59.7701 31.7653 59.8928 31.376H61.9968C61.9008 31.9627 61.6661 32.464 61.2928 32.88C60.9194 33.296 60.4661 33.6133 59.9328 33.832C59.3994 34.0507 58.8448 34.16 58.2688 34.16ZM56.4448 29.008H59.8208C59.8208 28.6773 59.7568 28.3733 59.6288 28.096C59.5061 27.8187 59.3194 27.6 59.0688 27.44C58.8234 27.28 58.5141 27.2 58.1408 27.2C57.7834 27.2 57.4768 27.288 57.2208 27.464C56.9701 27.6347 56.7754 27.8587 56.6368 28.136C56.5034 28.4133 56.4394 28.704 56.4448 29.008ZM66.8155 34.16C65.7062 34.16 64.8422 33.7787 64.2235 33.016C63.6048 32.248 63.2955 31.1813 63.2955 29.816C63.2955 28.952 63.4208 28.2027 63.6715 27.568C63.9222 26.9333 64.2928 26.4427 64.7835 26.096C65.2742 25.744 65.8742 25.568 66.5835 25.568C66.8822 25.568 67.1595 25.6027 67.4155 25.672C67.6768 25.736 67.9142 25.8267 68.1275 25.944C68.3408 26.0613 68.5275 26.1973 68.6875 26.352C68.8475 26.5067 68.9782 26.672 69.0795 26.848V22.112H71.4235V34H69.7275L69.4635 32.304C69.3835 32.5333 69.2768 32.7573 69.1435 32.976C69.0155 33.1947 68.8475 33.3947 68.6395 33.576C68.4315 33.752 68.1755 33.8933 67.8715 34C67.5728 34.1067 67.2208 34.16 66.8155 34.16ZM67.3275 32.48C67.9142 32.48 68.3515 32.2747 68.6395 31.864C68.9328 31.4533 69.0795 30.76 69.0795 29.784C69.0742 29.2187 69.0075 28.7493 68.8795 28.376C68.7515 28.0027 68.5595 27.7253 68.3035 27.544C68.0528 27.3573 67.7328 27.264 67.3435 27.264C66.8368 27.264 66.4155 27.4587 66.0795 27.848C65.7435 28.232 65.5755 28.8773 65.5755 29.784C65.5755 30.7067 65.7328 31.3867 66.0475 31.824C66.3622 32.2613 66.7888 32.48 67.3275 32.48ZM73.4928 34V25.728H75.7248V34H73.4928ZM73.4688 24.544V22.44H75.7408V24.544H73.4688ZM81.3344 34.16C80.5664 34.16 79.881 33.9893 79.2784 33.648C78.6757 33.3067 78.201 32.8187 77.8544 32.184C77.513 31.544 77.3424 30.7813 77.3424 29.896C77.3424 29.0427 77.5077 28.2907 77.8384 27.64C78.169 26.9893 78.633 26.4827 79.2304 26.12C79.833 25.752 80.5344 25.568 81.3344 25.568C82.0277 25.568 82.625 25.7093 83.1264 25.992C83.633 26.2747 84.0304 26.656 84.3184 27.136C84.6117 27.616 84.7797 28.152 84.8224 28.744H82.8784C82.841 28.5253 82.7637 28.3093 82.6464 28.096C82.529 27.8773 82.3637 27.6987 82.1504 27.56C81.937 27.416 81.6704 27.344 81.3504 27.344C80.8064 27.344 80.3637 27.5547 80.0224 27.976C79.6864 28.392 79.5184 29.0267 79.5184 29.88C79.5184 30.6853 79.6837 31.3253 80.0144 31.8C80.345 32.2693 80.8064 32.504 81.3984 32.504C81.713 32.504 81.9744 32.4267 82.1824 32.272C82.3957 32.1173 82.561 31.9333 82.6784 31.72C82.7957 31.5013 82.8704 31.2987 82.9024 31.112H84.7984C84.761 31.6827 84.5957 32.2 84.3024 32.664C84.009 33.1227 83.609 33.488 83.1024 33.76C82.601 34.0267 82.0117 34.16 81.3344 34.16ZM88.8935 34.16C88.3708 34.16 87.8962 34.0613 87.4695 33.864C87.0482 33.6667 86.7148 33.3813 86.4695 33.008C86.2242 32.6293 86.1015 32.1707 86.1015 31.632C86.1015 30.7253 86.4402 30.0373 87.1175 29.568C87.7948 29.0933 88.8642 28.848 90.3255 28.832L91.3655 28.816V28.32C91.3655 27.9413 91.2535 27.6507 91.0295 27.448C90.8108 27.24 90.4668 27.1387 89.9975 27.144C89.6615 27.1493 89.3388 27.2293 89.0295 27.384C88.7255 27.5387 88.5148 27.808 88.3975 28.192H86.4535C86.4855 27.5947 86.6588 27.104 86.9735 26.72C87.2935 26.3307 87.7228 26.0427 88.2615 25.856C88.8002 25.664 89.4162 25.568 90.1095 25.568C90.9522 25.568 91.6295 25.6747 92.1415 25.888C92.6535 26.096 93.0242 26.3973 93.2535 26.792C93.4882 27.1813 93.6055 27.6453 93.6055 28.184V34H91.6535L91.4615 32.576C91.1788 33.1733 90.8242 33.5867 90.3975 33.816C89.9762 34.0453 89.4748 34.16 88.8935 34.16ZM89.6855 32.624C89.8935 32.624 90.0962 32.5867 90.2935 32.512C90.4962 32.432 90.6775 32.328 90.8375 32.2C90.9975 32.0667 91.1228 31.9173 91.2135 31.752C91.3095 31.5867 91.3602 31.416 91.3655 31.24V30.016L90.5255 30.032C90.1362 30.0373 89.7735 30.0853 89.4375 30.176C89.1015 30.2613 88.8295 30.4027 88.6215 30.6C88.4188 30.7973 88.3175 31.064 88.3175 31.4C88.3175 31.784 88.4482 32.0853 88.7095 32.304C88.9762 32.5173 89.3015 32.624 89.6855 32.624ZM98.14 34.144C97.532 34.144 97.0493 34.072 96.692 33.928C96.3347 33.784 96.0707 33.5947 95.9 33.36C95.7293 33.12 95.62 32.856 95.572 32.568C95.524 32.2747 95.5 31.9787 95.5 31.68V22.112H97.788V31.392C97.788 31.696 97.852 31.944 97.98 32.136C98.1133 32.3227 98.3613 32.4373 98.724 32.48L99.116 32.504V33.944C98.956 33.9973 98.7933 34.0427 98.628 34.08C98.4627 34.1227 98.3 34.144 98.14 34.144ZM109.351 34.16C108.29 34.16 107.367 33.92 106.583 33.44C105.804 32.9547 105.202 32.2693 104.775 31.384C104.354 30.4987 104.143 29.4533 104.143 28.248C104.143 27.0213 104.364 25.9627 104.807 25.072C105.255 24.176 105.879 23.4853 106.679 23C107.479 22.5147 108.412 22.272 109.479 22.272C110.167 22.272 110.794 22.3813 111.359 22.6C111.924 22.8187 112.415 23.1173 112.831 23.496C113.252 23.8747 113.58 24.304 113.815 24.784C114.055 25.2587 114.186 25.752 114.207 26.264H111.743C111.674 25.896 111.535 25.56 111.327 25.256C111.124 24.952 110.863 24.7093 110.543 24.528C110.223 24.3413 109.85 24.248 109.423 24.248C108.911 24.248 108.447 24.3813 108.031 24.648C107.615 24.9093 107.287 25.328 107.047 25.904C106.807 26.48 106.687 27.24 106.687 28.184C106.687 28.9467 106.764 29.5813 106.919 30.088C107.079 30.5947 107.292 30.9973 107.559 31.296C107.826 31.5893 108.13 31.7973 108.471 31.92C108.812 32.0427 109.162 32.104 109.519 32.104C109.86 32.104 110.164 32.048 110.431 31.936C110.703 31.8187 110.935 31.6693 111.127 31.488C111.319 31.3067 111.471 31.1093 111.583 30.896C111.695 30.6773 111.767 30.464 111.799 30.256L111.887 29.552H109.495V27.936L114.335 27.96V34H112.743V32.488C112.546 32.7493 112.3 33.0107 112.007 33.272C111.719 33.528 111.359 33.7413 110.927 33.912C110.5 34.0773 109.975 34.16 109.351 34.16ZM116.516 34V25.728H118.764V27.688C118.897 27.2667 119.084 26.8987 119.324 26.584C119.569 26.264 119.865 26.016 120.212 25.84C120.558 25.6587 120.95 25.568 121.388 25.568C121.462 25.568 121.532 25.5733 121.596 25.584C121.665 25.5893 121.716 25.6 121.748 25.616V27.84C121.7 27.8187 121.641 27.8053 121.572 27.8C121.508 27.7947 121.449 27.7893 121.396 27.784C120.937 27.7467 120.545 27.76 120.22 27.824C119.894 27.888 119.63 27.9973 119.428 28.152C119.225 28.3067 119.078 28.496 118.988 28.72C118.897 28.944 118.852 29.1947 118.852 29.472V34H116.516ZM126.702 34.16C125.891 34.16 125.184 33.9867 124.582 33.64C123.984 33.2933 123.52 32.8027 123.19 32.168C122.864 31.5333 122.702 30.7813 122.702 29.912C122.702 29.0427 122.864 28.2827 123.19 27.632C123.52 26.9813 123.984 26.4747 124.582 26.112C125.184 25.7493 125.894 25.568 126.71 25.568C127.526 25.568 128.232 25.7467 128.83 26.104C129.427 26.456 129.888 26.9573 130.214 27.608C130.539 28.2587 130.702 29.0267 130.702 29.912C130.702 30.744 130.542 31.48 130.222 32.12C129.907 32.7547 129.451 33.2533 128.854 33.616C128.262 33.9787 127.544 34.16 126.702 34.16ZM126.71 32.424C127.12 32.424 127.451 32.304 127.702 32.064C127.952 31.824 128.134 31.5093 128.246 31.12C128.358 30.7253 128.414 30.296 128.414 29.832C128.414 29.3947 128.363 28.9813 128.262 28.592C128.16 28.2027 127.984 27.888 127.734 27.648C127.483 27.408 127.142 27.288 126.71 27.288C126.299 27.288 125.966 27.4027 125.71 27.632C125.459 27.856 125.275 28.1627 125.158 28.552C125.04 28.936 124.982 29.3627 124.982 29.832C124.982 30.264 125.035 30.68 125.142 31.08C125.248 31.4747 125.427 31.7973 125.678 32.048C125.928 32.2987 126.272 32.424 126.71 32.424ZM135.282 34.16C134.898 34.16 134.52 34.1013 134.146 33.984C133.778 33.8667 133.442 33.6933 133.138 33.464C132.834 33.2347 132.589 32.952 132.402 32.616C132.221 32.28 132.13 31.8907 132.13 31.448V25.728H134.466V31.152C134.466 31.536 134.592 31.8507 134.842 32.096C135.093 32.3413 135.461 32.464 135.946 32.464C136.405 32.464 136.768 32.3467 137.034 32.112C137.306 31.872 137.442 31.5387 137.442 31.112V25.728H139.754V34H137.994L137.722 32.36C137.626 32.8453 137.445 33.2187 137.178 33.48C136.917 33.736 136.616 33.912 136.274 34.008C135.938 34.1093 135.608 34.16 135.282 34.16ZM141.797 36.576V25.728H144.141L144.149 26.92C144.272 26.7227 144.421 26.544 144.597 26.384C144.778 26.2187 144.978 26.0747 145.197 25.952C145.416 25.8293 145.653 25.736 145.909 25.672C146.165 25.6027 146.434 25.568 146.717 25.568C147.33 25.568 147.877 25.72 148.357 26.024C148.837 26.3227 149.213 26.7867 149.485 27.416C149.762 28.04 149.901 28.8347 149.901 29.8C149.901 30.8027 149.752 31.6267 149.453 32.272C149.16 32.912 148.754 33.3867 148.237 33.696C147.72 34.0053 147.136 34.16 146.485 34.16C146.218 34.16 145.968 34.1227 145.733 34.048C145.498 33.9787 145.28 33.88 145.077 33.752C144.88 33.624 144.701 33.4773 144.541 33.312C144.386 33.1413 144.25 32.9573 144.133 32.76V36.576H141.797ZM145.925 32.448C146.432 32.448 146.856 32.2373 147.197 31.816C147.544 31.3947 147.717 30.728 147.717 29.816C147.717 29.016 147.552 28.392 147.221 27.944C146.896 27.4907 146.464 27.264 145.925 27.264C145.322 27.264 144.872 27.5093 144.573 28C144.28 28.4853 144.133 29.0907 144.133 29.816C144.133 30.28 144.197 30.712 144.325 31.112C144.458 31.512 144.656 31.8347 144.917 32.08C145.184 32.3253 145.52 32.448 145.925 32.448Z" fill="#F4F4F4"/>
<path d="M17 2L20.8167 13.7467L33.168 13.7467L23.1756 21.0066L26.9923 32.7533L17 25.4934L7.00765 32.7533L10.8244 21.0066L0.832039 13.7467L13.1833 13.7467L17 2Z" fill="#F4F4F4"/>
</svg>
